<mxfile host="65bd71144e">
    <diagram id="GxxrP0lvxAbWxJMTPrHu" name="Page-1">
        <mxGraphModel dx="2403" dy="1568" grid="1" gridSize="10" guides="1" tooltips="1" connect="1" arrows="1" fold="1" page="1" pageScale="1" pageWidth="827" pageHeight="1169" math="0" shadow="0">
            <root>
                <mxCell id="0"/>
                <mxCell id="1" parent="0"/>
                <mxCell id="EJnaUkzqWR3YQyQ7dOgF-1" value="Main" style="swimlane;fontStyle=1;align=center;verticalAlign=top;childLayout=stackLayout;horizontal=1;startSize=26;horizontalStack=0;resizeParent=1;resizeParentMax=0;resizeLast=0;collapsible=1;marginBottom=0;" parent="1" vertex="1">
                    <mxGeometry x="100" width="170" height="100" as="geometry"/>
                </mxCell>
                <mxCell id="EJnaUkzqWR3YQyQ7dOgF-3" value="" style="line;strokeWidth=1;fillColor=none;align=left;verticalAlign=middle;spacingTop=-1;spacingLeft=3;spacingRight=3;rotatable=0;labelPosition=right;points=[];portConstraint=eastwest;" parent="EJnaUkzqWR3YQyQ7dOgF-1" vertex="1">
                    <mxGeometry y="26" width="170" height="24" as="geometry"/>
                </mxCell>
                <mxCell id="QGG74kZx5etVXOkYBk9g-1" value="+ main() : void&#10;+ start(stage: Stage): void&#10;" style="text;strokeColor=none;fillColor=none;align=left;verticalAlign=top;spacingLeft=4;spacingRight=4;overflow=hidden;rotatable=0;points=[[0,0.5],[1,0.5]];portConstraint=eastwest;fontStyle=0" parent="EJnaUkzqWR3YQyQ7dOgF-1" vertex="1">
                    <mxGeometry y="50" width="170" height="50" as="geometry"/>
                </mxCell>
                <mxCell id="EJnaUkzqWR3YQyQ7dOgF-13" value="CompetitionsList" style="swimlane;fontStyle=1;align=center;verticalAlign=top;childLayout=stackLayout;horizontal=1;startSize=26;horizontalStack=0;resizeParent=1;resizeParentMax=0;resizeLast=0;collapsible=1;marginBottom=0;" parent="1" vertex="1">
                    <mxGeometry x="460" width="270" height="230" as="geometry"/>
                </mxCell>
                <mxCell id="QGG74kZx5etVXOkYBk9g-5" value="+ addButton : Button&#10;+ deleteButton: Button&#10;+ competitionView : pane&#10;+ statusBar : statusBar&#10;+ currentCompetition: Competition&#10;" style="text;strokeColor=none;fillColor=none;align=left;verticalAlign=top;spacingLeft=4;spacingRight=4;overflow=hidden;rotatable=0;points=[[0,0.5],[1,0.5]];portConstraint=eastwest;" parent="EJnaUkzqWR3YQyQ7dOgF-13" vertex="1">
                    <mxGeometry y="26" width="270" height="74" as="geometry"/>
                </mxCell>
                <mxCell id="EJnaUkzqWR3YQyQ7dOgF-15" value="" style="line;strokeWidth=1;fillColor=none;align=left;verticalAlign=middle;spacingTop=-1;spacingLeft=3;spacingRight=3;rotatable=0;labelPosition=right;points=[];portConstraint=eastwest;" parent="EJnaUkzqWR3YQyQ7dOgF-13" vertex="1">
                    <mxGeometry y="100" width="270" height="20" as="geometry"/>
                </mxCell>
                <mxCell id="EJnaUkzqWR3YQyQ7dOgF-16" value="+ addButtonClicked() : void&#10;+ deleteButtonClicked() : void&#10;+ competitionCellClicked() : void&#10;+ layoutUI() : void&#10;+ addCompetition(): void&#10;+ selectCompetition(c: Competition): void&#10;+ updateCompetitionList(): void&#10;&#10;&#10;&#10;&#10;" style="text;strokeColor=none;fillColor=none;align=left;verticalAlign=top;spacingLeft=4;spacingRight=4;overflow=hidden;rotatable=0;points=[[0,0.5],[1,0.5]];portConstraint=eastwest;" parent="EJnaUkzqWR3YQyQ7dOgF-13" vertex="1">
                    <mxGeometry y="120" width="270" height="110" as="geometry"/>
                </mxCell>
                <mxCell id="EJnaUkzqWR3YQyQ7dOgF-33" value="Competition" style="swimlane;fontStyle=3;align=center;verticalAlign=top;childLayout=stackLayout;horizontal=1;startSize=26;horizontalStack=0;resizeParent=1;resizeParentMax=0;resizeLast=0;collapsible=1;marginBottom=0;" parent="1" vertex="1">
                    <mxGeometry x="-880" y="500" width="340" height="370" as="geometry"/>
                </mxCell>
                <mxCell id="EJnaUkzqWR3YQyQ7dOgF-34" value="- name: String&#10;- link: String&#10;- date: Data&#10;- result:HashMap&lt;Participant, String&gt;&#10;- type: Type" style="text;strokeColor=none;fillColor=none;align=left;verticalAlign=top;spacingLeft=4;spacingRight=4;overflow=hidden;rotatable=0;points=[[0,0.5],[1,0.5]];portConstraint=eastwest;fontStyle=0" parent="EJnaUkzqWR3YQyQ7dOgF-33" vertex="1">
                    <mxGeometry y="26" width="340" height="84" as="geometry"/>
                </mxCell>
                <mxCell id="EJnaUkzqWR3YQyQ7dOgF-35" value="" style="line;strokeWidth=1;fillColor=none;align=left;verticalAlign=middle;spacingTop=-1;spacingLeft=3;spacingRight=3;rotatable=0;labelPosition=right;points=[];portConstraint=eastwest;" parent="EJnaUkzqWR3YQyQ7dOgF-33" vertex="1">
                    <mxGeometry y="110" width="340" height="20" as="geometry"/>
                </mxCell>
                <mxCell id="EJnaUkzqWR3YQyQ7dOgF-36" value="+ setName(): void&#10;+ getName(): String&#10;+ getLink(): String&#10;+ setLink(): void&#10;+ getDate(): Date&#10;+ setDate(): void&#10;+ put(participant: Participant, result: String): void&#10;+ getType(): Competition.Type&#10;+ getResults(p : Participant): String&#10;+ containsParticipant(p: Participant): booean&#10;+ containsResult(rank: String)&#10;+ put(p: Participant, rank: String)&#10;+ putIfAbsent(Participant p, String rank)&#10;+ size(): int&#10;+ remove(p: Participant): void&#10;+ getStudents(): ArrayList&lt;Student&gt;&#10;&#10;&#10;&#10;&#10;&#10;" style="text;strokeColor=none;fillColor=none;align=left;verticalAlign=top;spacingLeft=4;spacingRight=4;overflow=hidden;rotatable=0;points=[[0,0.5],[1,0.5]];portConstraint=eastwest;" parent="EJnaUkzqWR3YQyQ7dOgF-33" vertex="1">
                    <mxGeometry y="130" width="340" height="240" as="geometry"/>
                </mxCell>
                <mxCell id="QGG74kZx5etVXOkYBk9g-6" value="CompetitionInfo" style="swimlane;fontStyle=1;align=center;verticalAlign=top;childLayout=stackLayout;horizontal=1;startSize=26;horizontalStack=0;resizeParent=1;resizeParentMax=0;resizeLast=0;collapsible=1;marginBottom=0;" parent="1" vertex="1">
                    <mxGeometry x="460" y="250" width="250" height="440" as="geometry"/>
                </mxCell>
                <mxCell id="QGG74kZx5etVXOkYBk9g-7" value="+ infoLabel: Label&#10;+ dateField: InfoViewLabeld&#10;+ linkField: InfoViewLable&#10;+ typeField: InfoViewField&#10;+ linkEditableLabel: editableLabel&#10;+ addParticipantButton : Button&#10;+ browseButton : Button&#10;+ participantsTableView: TableView&#10;+ infoPane : pane&#10;+ sendEmailBtn: Button&#10;+ editBtn: Button&#10;+ exitBtn: Button&#10;+ submitBtn: Button&#10;&#10;&#10;" style="text;strokeColor=none;fillColor=none;align=left;verticalAlign=top;spacingLeft=4;spacingRight=4;overflow=hidden;rotatable=0;points=[[0,0.5],[1,0.5]];portConstraint=eastwest;" parent="QGG74kZx5etVXOkYBk9g-6" vertex="1">
                    <mxGeometry y="26" width="250" height="194" as="geometry"/>
                </mxCell>
                <mxCell id="QGG74kZx5etVXOkYBk9g-8" value="" style="line;strokeWidth=1;fillColor=none;align=left;verticalAlign=middle;spacingTop=-1;spacingLeft=3;spacingRight=3;rotatable=0;labelPosition=right;points=[];portConstraint=eastwest;" parent="QGG74kZx5etVXOkYBk9g-6" vertex="1">
                    <mxGeometry y="220" width="250" height="10" as="geometry"/>
                </mxCell>
                <mxCell id="QGG74kZx5etVXOkYBk9g-9" value="+ addButtonClicked() : void&#10;+ deleteButtonClicked() : void&#10;+ competitionCellClicked() : void&#10;+ layoutUI() : void&#10;+ browse(): void&#10;+ displayCompetition(c: Competition): void&#10;+ displayBlank(): void&#10;+ sendEmail(c: Compettion): void&#10;- isValid(): boolean&#10;- displayError(msg: String)&#10;- displaySuccess(msg: String)&#10;+ editButtonClicked()&#10;+ exitButtonClicked()&#10;+ submitButtonClicked()&#10;" style="text;strokeColor=none;fillColor=none;align=left;verticalAlign=top;spacingLeft=4;spacingRight=4;overflow=hidden;rotatable=0;points=[[0,0.5],[1,0.5]];portConstraint=eastwest;" parent="QGG74kZx5etVXOkYBk9g-6" vertex="1">
                    <mxGeometry y="230" width="250" height="210" as="geometry"/>
                </mxCell>
                <mxCell id="0c5YRF4WHMTncs785dVi-13" value="CompetitionManager" style="swimlane;fontStyle=1;align=center;verticalAlign=top;childLayout=stackLayout;horizontal=1;startSize=26;horizontalStack=0;resizeParent=1;resizeParentMax=0;resizeLast=0;collapsible=1;marginBottom=0;" parent="1" vertex="1">
                    <mxGeometry x="-380" y="410" width="220" height="240" as="geometry"/>
                </mxCell>
                <mxCell id="0c5YRF4WHMTncs785dVi-14" value="- competitions: ArrayList&lt;Competition&gt;&#10;- dataFile: File&#10;- XSSFWorkbook: dataWorkbook&#10;" style="text;strokeColor=none;fillColor=none;align=left;verticalAlign=top;spacingLeft=4;spacingRight=4;overflow=hidden;rotatable=0;points=[[0,0.5],[1,0.5]];portConstraint=eastwest;fontStyle=0" parent="0c5YRF4WHMTncs785dVi-13" vertex="1">
                    <mxGeometry y="26" width="220" height="54" as="geometry"/>
                </mxCell>
                <mxCell id="0c5YRF4WHMTncs785dVi-15" value="" style="line;strokeWidth=1;fillColor=none;align=left;verticalAlign=middle;spacingTop=-1;spacingLeft=3;spacingRight=3;rotatable=0;labelPosition=right;points=[];portConstraint=eastwest;" parent="0c5YRF4WHMTncs785dVi-13" vertex="1">
                    <mxGeometry y="80" width="220" height="10" as="geometry"/>
                </mxCell>
                <mxCell id="0c5YRF4WHMTncs785dVi-16" value="+ intitlizeData() void&#10;+ readCompetitions(): void&#10;+ writeCompetition(): void&#10;+ get(i: int):Competition&#10;+ get(c: Competition): Competition&#10;+ size(): int&#10;+ remove(c: Competition): void&#10;+ add(c: Competition): void&#10;+ edit(c: Competition): void&#10;&#10;&#10;" style="text;strokeColor=none;fillColor=none;align=left;verticalAlign=top;spacingLeft=4;spacingRight=4;overflow=hidden;rotatable=0;points=[[0,0.5],[1,0.5]];portConstraint=eastwest;" parent="0c5YRF4WHMTncs785dVi-13" vertex="1">
                    <mxGeometry y="90" width="220" height="150" as="geometry"/>
                </mxCell>
                <mxCell id="0c5YRF4WHMTncs785dVi-21" value="TeamCompetition" style="swimlane;fontStyle=1;align=center;verticalAlign=top;childLayout=stackLayout;horizontal=1;startSize=26;horizontalStack=0;resizeParent=1;resizeParentMax=0;resizeLast=0;collapsible=1;marginBottom=0;" parent="1" vertex="1">
                    <mxGeometry x="-640" y="1060" width="220" height="100" as="geometry"/>
                </mxCell>
                <mxCell id="0c5YRF4WHMTncs785dVi-22" value="- results: HashMap&lt;Team, String&gt;" style="text;strokeColor=none;fillColor=none;align=left;verticalAlign=top;spacingLeft=4;spacingRight=4;overflow=hidden;rotatable=0;points=[[0,0.5],[1,0.5]];portConstraint=eastwest;fontStyle=0" parent="0c5YRF4WHMTncs785dVi-21" vertex="1">
                    <mxGeometry y="26" width="220" height="54" as="geometry"/>
                </mxCell>
                <mxCell id="0c5YRF4WHMTncs785dVi-23" value="" style="line;strokeWidth=1;fillColor=none;align=left;verticalAlign=middle;spacingTop=-1;spacingLeft=3;spacingRight=3;rotatable=0;labelPosition=right;points=[];portConstraint=eastwest;" parent="0c5YRF4WHMTncs785dVi-21" vertex="1">
                    <mxGeometry y="80" width="220" height="20" as="geometry"/>
                </mxCell>
                <mxCell id="0c5YRF4WHMTncs785dVi-25" value="CompetitionParser" style="swimlane;fontStyle=5;align=center;verticalAlign=top;childLayout=stackLayout;horizontal=1;startSize=26;horizontalStack=0;resizeParent=1;resizeParentMax=0;resizeLast=0;collapsible=1;marginBottom=0;" parent="1" vertex="1">
                    <mxGeometry x="-90" y="370" width="420" height="280" as="geometry"/>
                </mxCell>
                <mxCell id="0c5YRF4WHMTncs785dVi-26" value="-  NAME_ROW: int&#10;-  LINK_ROW: int&#10;-  DATE_ROW: int&#10;-  CELL: int&#10;- FIRST_PARTICIPANT_ROW: int&#10;" style="text;strokeColor=none;fillColor=none;align=left;verticalAlign=top;spacingLeft=4;spacingRight=4;overflow=hidden;rotatable=0;points=[[0,0.5],[1,0.5]];portConstraint=eastwest;fontStyle=4" parent="0c5YRF4WHMTncs785dVi-25" vertex="1">
                    <mxGeometry y="26" width="420" height="94" as="geometry"/>
                </mxCell>
                <mxCell id="0c5YRF4WHMTncs785dVi-27" value="" style="line;strokeWidth=1;fillColor=none;align=left;verticalAlign=middle;spacingTop=-1;spacingLeft=3;spacingRight=3;rotatable=0;labelPosition=right;points=[];portConstraint=eastwest;" parent="0c5YRF4WHMTncs785dVi-25" vertex="1">
                    <mxGeometry y="120" width="420" height="20" as="geometry"/>
                </mxCell>
                <mxCell id="0c5YRF4WHMTncs785dVi-28" value="- getStudent(row: XSSFRow): Student&#10;- getStudents(sheet: XSSFSheet): ArrayList&lt;Students&gt;&#10;- getType(sheet: XSSF): Competition.Type&#10;+ getCompetition(sheet: XSSFSheet): Competition&#10;+ getCompetitions(workbook: XSSFWorkbook): ArrayList&lt;Competitions&gt;&#10;+ geSheet(competition: Competition): XSSFSheet&#10;+ getWorkBook(competitions: ArrayList&lt;Competitions&gt;): XSSFDataWorkbook &#10;" style="text;strokeColor=none;fillColor=none;align=left;verticalAlign=top;spacingLeft=4;spacingRight=4;overflow=hidden;rotatable=0;points=[[0,0.5],[1,0.5]];portConstraint=eastwest;fontStyle=4" parent="0c5YRF4WHMTncs785dVi-25" vertex="1">
                    <mxGeometry y="140" width="420" height="140" as="geometry"/>
                </mxCell>
                <mxCell id="0c5YRF4WHMTncs785dVi-29" value="StudentCompetition" style="swimlane;fontStyle=1;align=center;verticalAlign=top;childLayout=stackLayout;horizontal=1;startSize=26;horizontalStack=0;resizeParent=1;resizeParentMax=0;resizeLast=0;collapsible=1;marginBottom=0;" parent="1" vertex="1">
                    <mxGeometry x="-1170" y="1040" width="220" height="110" as="geometry"/>
                </mxCell>
                <mxCell id="0c5YRF4WHMTncs785dVi-30" value="- results: HashMap&lt;Student, String&gt;" style="text;strokeColor=none;fillColor=none;align=left;verticalAlign=top;spacingLeft=4;spacingRight=4;overflow=hidden;rotatable=0;points=[[0,0.5],[1,0.5]];portConstraint=eastwest;fontStyle=0" parent="0c5YRF4WHMTncs785dVi-29" vertex="1">
                    <mxGeometry y="26" width="220" height="34" as="geometry"/>
                </mxCell>
                <mxCell id="0c5YRF4WHMTncs785dVi-31" value="" style="line;strokeWidth=1;fillColor=none;align=left;verticalAlign=middle;spacingTop=-1;spacingLeft=3;spacingRight=3;rotatable=0;labelPosition=right;points=[];portConstraint=eastwest;" parent="0c5YRF4WHMTncs785dVi-29" vertex="1">
                    <mxGeometry y="60" width="220" height="20" as="geometry"/>
                </mxCell>
                <mxCell id="0c5YRF4WHMTncs785dVi-32" value="&#10;" style="text;strokeColor=none;fillColor=none;align=left;verticalAlign=top;spacingLeft=4;spacingRight=4;overflow=hidden;rotatable=0;points=[[0,0.5],[1,0.5]];portConstraint=eastwest;" parent="0c5YRF4WHMTncs785dVi-29" vertex="1">
                    <mxGeometry y="80" width="220" height="30" as="geometry"/>
                </mxCell>
                <mxCell id="6HsjpcbzOpORPiPXT8NS-8" value="Extends" style="endArrow=block;endSize=16;endFill=0;html=1;rounded=0;entryX=0.5;entryY=1;entryDx=0;entryDy=0;" parent="1" edge="1">
                    <mxGeometry width="160" relative="1" as="geometry">
                        <mxPoint x="-690" y="200" as="sourcePoint"/>
                        <mxPoint x="-690" y="90" as="targetPoint"/>
                    </mxGeometry>
                </mxCell>
                <mxCell id="6HsjpcbzOpORPiPXT8NS-10" value="" style="endArrow=none;html=1;rounded=0;exitX=0.5;exitY=0;exitDx=0;exitDy=0;" parent="1" edge="1">
                    <mxGeometry width="50" height="50" relative="1" as="geometry">
                        <mxPoint x="-1050" y="257" as="sourcePoint"/>
                        <mxPoint x="-690" y="200" as="targetPoint"/>
                        <Array as="points">
                            <mxPoint x="-1050" y="200"/>
                        </Array>
                    </mxGeometry>
                </mxCell>
                <mxCell id="6HsjpcbzOpORPiPXT8NS-11" value="" style="endArrow=none;html=1;rounded=0;exitX=0.5;exitY=0;exitDx=0;exitDy=0;" parent="1" edge="1">
                    <mxGeometry width="50" height="50" relative="1" as="geometry">
                        <mxPoint x="-510" y="281" as="sourcePoint"/>
                        <mxPoint x="-690" y="200" as="targetPoint"/>
                        <Array as="points">
                            <mxPoint x="-510" y="200"/>
                        </Array>
                    </mxGeometry>
                </mxCell>
                <mxCell id="6HsjpcbzOpORPiPXT8NS-17" value="" style="endArrow=diamondThin;endFill=0;endSize=24;html=1;rounded=0;entryX=1;entryY=0.319;entryDx=0;entryDy=0;entryPerimeter=0;exitX=0;exitY=0.5;exitDx=0;exitDy=0;" parent="1" source="6HsjpcbzOpORPiPXT8NS-29" target="6HsjpcbzOpORPiPXT8NS-36" edge="1">
                    <mxGeometry width="160" relative="1" as="geometry">
                        <mxPoint x="-630" y="329" as="sourcePoint"/>
                        <mxPoint x="-873.9200000000001" y="385.6679999999999" as="targetPoint"/>
                        <Array as="points">
                            <mxPoint x="-797" y="321"/>
                        </Array>
                    </mxGeometry>
                </mxCell>
                <mxCell id="VfqzEj0OTGTTC5FNFpXB-12" value="1..n" style="edgeLabel;html=1;align=center;verticalAlign=middle;resizable=0;points=[];" parent="6HsjpcbzOpORPiPXT8NS-17" vertex="1" connectable="0">
                    <mxGeometry x="-0.8552" y="-1" relative="1" as="geometry">
                        <mxPoint as="offset"/>
                    </mxGeometry>
                </mxCell>
                <mxCell id="6HsjpcbzOpORPiPXT8NS-28" value="Student" style="swimlane;fontStyle=1;align=center;verticalAlign=top;childLayout=stackLayout;horizontal=1;startSize=26;horizontalStack=0;resizeParent=1;resizeParentMax=0;resizeLast=0;collapsible=1;marginBottom=0;" parent="1" vertex="1">
                    <mxGeometry x="-590" y="270" width="160" height="120" as="geometry"/>
                </mxCell>
                <mxCell id="6HsjpcbzOpORPiPXT8NS-29" value="- id: String&#10;- major: String&#10;" style="text;strokeColor=none;fillColor=none;align=left;verticalAlign=top;spacingLeft=4;spacingRight=4;overflow=hidden;rotatable=0;points=[[0,0.5],[1,0.5]];portConstraint=eastwest;" parent="6HsjpcbzOpORPiPXT8NS-28" vertex="1">
                    <mxGeometry y="26" width="160" height="44" as="geometry"/>
                </mxCell>
                <mxCell id="6HsjpcbzOpORPiPXT8NS-30" value="" style="line;strokeWidth=1;fillColor=none;align=left;verticalAlign=middle;spacingTop=-1;spacingLeft=3;spacingRight=3;rotatable=0;labelPosition=right;points=[];portConstraint=eastwest;" parent="6HsjpcbzOpORPiPXT8NS-28" vertex="1">
                    <mxGeometry y="70" width="160" height="8" as="geometry"/>
                </mxCell>
                <mxCell id="6HsjpcbzOpORPiPXT8NS-31" value="+ getId(): String&#10;+ getMajor(): String&#10;" style="text;strokeColor=none;fillColor=none;align=left;verticalAlign=top;spacingLeft=4;spacingRight=4;overflow=hidden;rotatable=0;points=[[0,0.5],[1,0.5]];portConstraint=eastwest;" parent="6HsjpcbzOpORPiPXT8NS-28" vertex="1">
                    <mxGeometry y="78" width="160" height="42" as="geometry"/>
                </mxCell>
                <mxCell id="6HsjpcbzOpORPiPXT8NS-33" value="Team" style="swimlane;fontStyle=1;align=center;verticalAlign=top;childLayout=stackLayout;horizontal=1;startSize=26;horizontalStack=0;resizeParent=1;resizeParentMax=0;resizeLast=0;collapsible=1;marginBottom=0;" parent="1" vertex="1">
                    <mxGeometry x="-1150" y="250" width="230" height="150" as="geometry"/>
                </mxCell>
                <mxCell id="6HsjpcbzOpORPiPXT8NS-35" value="" style="line;strokeWidth=1;fillColor=none;align=left;verticalAlign=middle;spacingTop=-1;spacingLeft=3;spacingRight=3;rotatable=0;labelPosition=right;points=[];portConstraint=eastwest;" parent="6HsjpcbzOpORPiPXT8NS-33" vertex="1">
                    <mxGeometry y="26" width="230" height="8" as="geometry"/>
                </mxCell>
                <mxCell id="6HsjpcbzOpORPiPXT8NS-36" value="+ set(i : int, s: Student): void&#10;+ add(s : Stduent): void&#10;+ isEmpty(): boolean&#10;+ size(): int&#10;+ remove(i : int): void&#10;+ remove(s: Student): void&#10;+ indexOf(s: Student)" style="text;strokeColor=none;fillColor=none;align=left;verticalAlign=top;spacingLeft=4;spacingRight=4;overflow=hidden;rotatable=0;points=[[0,0.5],[1,0.5]];portConstraint=eastwest;" parent="6HsjpcbzOpORPiPXT8NS-33" vertex="1">
                    <mxGeometry y="34" width="230" height="116" as="geometry"/>
                </mxCell>
                <mxCell id="6HsjpcbzOpORPiPXT8NS-37" value="Participant    " style="swimlane;fontStyle=1;align=center;verticalAlign=top;childLayout=stackLayout;horizontal=1;startSize=26;horizontalStack=0;resizeParent=1;resizeParentMax=0;resizeLast=0;collapsible=1;marginBottom=0;" parent="1" vertex="1">
                    <mxGeometry x="-790" y="-20" width="200" height="110" as="geometry"/>
                </mxCell>
                <mxCell id="6HsjpcbzOpORPiPXT8NS-38" value="- name: String" style="text;strokeColor=none;fillColor=none;align=left;verticalAlign=top;spacingLeft=4;spacingRight=4;overflow=hidden;rotatable=0;points=[[0,0.5],[1,0.5]];portConstraint=eastwest;" parent="6HsjpcbzOpORPiPXT8NS-37" vertex="1">
                    <mxGeometry y="26" width="200" height="26" as="geometry"/>
                </mxCell>
                <mxCell id="6HsjpcbzOpORPiPXT8NS-39" value="" style="line;strokeWidth=1;fillColor=none;align=left;verticalAlign=middle;spacingTop=-1;spacingLeft=3;spacingRight=3;rotatable=0;labelPosition=right;points=[];portConstraint=eastwest;" parent="6HsjpcbzOpORPiPXT8NS-37" vertex="1">
                    <mxGeometry y="52" width="200" height="8" as="geometry"/>
                </mxCell>
                <mxCell id="6HsjpcbzOpORPiPXT8NS-40" value="+ getName(): String&#10;- setName(): void&#10;" style="text;strokeColor=none;fillColor=none;align=left;verticalAlign=top;spacingLeft=4;spacingRight=4;overflow=hidden;rotatable=0;points=[[0,0.5],[1,0.5]];portConstraint=eastwest;" parent="6HsjpcbzOpORPiPXT8NS-37" vertex="1">
                    <mxGeometry y="60" width="200" height="50" as="geometry"/>
                </mxCell>
                <mxCell id="1q_wQC3C_rtbA6xubm2z-1" value="Extends" style="endArrow=block;endSize=16;endFill=0;html=1;rounded=0;entryX=0.5;entryY=1;entryDx=0;entryDy=0;" parent="1" edge="1">
                    <mxGeometry width="160" relative="1" as="geometry">
                        <mxPoint x="-710" y="980" as="sourcePoint"/>
                        <mxPoint x="-710" y="870" as="targetPoint"/>
                    </mxGeometry>
                </mxCell>
                <mxCell id="1q_wQC3C_rtbA6xubm2z-2" value="" style="endArrow=none;html=1;rounded=0;exitX=0.5;exitY=0;exitDx=0;exitDy=0;" parent="1" edge="1">
                    <mxGeometry width="50" height="50" relative="1" as="geometry">
                        <mxPoint x="-1070" y="1037" as="sourcePoint"/>
                        <mxPoint x="-710" y="980" as="targetPoint"/>
                        <Array as="points">
                            <mxPoint x="-1070" y="980"/>
                        </Array>
                    </mxGeometry>
                </mxCell>
                <mxCell id="1q_wQC3C_rtbA6xubm2z-3" value="" style="endArrow=none;html=1;rounded=0;exitX=0.5;exitY=0;exitDx=0;exitDy=0;" parent="1" edge="1">
                    <mxGeometry width="50" height="50" relative="1" as="geometry">
                        <mxPoint x="-530" y="1061" as="sourcePoint"/>
                        <mxPoint x="-710" y="980" as="targetPoint"/>
                        <Array as="points">
                            <mxPoint x="-530" y="980"/>
                        </Array>
                    </mxGeometry>
                </mxCell>
                <mxCell id="VfqzEj0OTGTTC5FNFpXB-4" value="" style="endArrow=none;html=1;rounded=0;entryX=0.026;entryY=0.734;entryDx=0;entryDy=0;entryPerimeter=0;" parent="1" source="0c5YRF4WHMTncs785dVi-14" target="0c5YRF4WHMTncs785dVi-26" edge="1">
                    <mxGeometry width="50" height="50" relative="1" as="geometry">
                        <mxPoint x="-60" y="580" as="sourcePoint"/>
                        <mxPoint x="-10" y="530" as="targetPoint"/>
                    </mxGeometry>
                </mxCell>
                <mxCell id="VfqzEj0OTGTTC5FNFpXB-10" value="parses using" style="edgeLabel;html=1;align=center;verticalAlign=middle;resizable=0;points=[];" parent="VfqzEj0OTGTTC5FNFpXB-4" vertex="1" connectable="0">
                    <mxGeometry x="0.5865" y="-2" relative="1" as="geometry">
                        <mxPoint x="-33" y="8" as="offset"/>
                    </mxGeometry>
                </mxCell>
                <mxCell id="VfqzEj0OTGTTC5FNFpXB-5" value="" style="endArrow=diamondThin;endFill=0;endSize=24;html=1;rounded=0;exitX=0.466;exitY=0.001;exitDx=0;exitDy=0;exitPerimeter=0;" parent="1" source="EJnaUkzqWR3YQyQ7dOgF-33" edge="1">
                    <mxGeometry width="160" relative="1" as="geometry">
                        <mxPoint x="-730" y="370" as="sourcePoint"/>
                        <mxPoint x="-380" y="440" as="targetPoint"/>
                        <Array as="points">
                            <mxPoint x="-722" y="440"/>
                        </Array>
                    </mxGeometry>
                </mxCell>
                <mxCell id="VfqzEj0OTGTTC5FNFpXB-9" value="1..n" style="edgeLabel;html=1;align=center;verticalAlign=middle;resizable=0;points=[];" parent="VfqzEj0OTGTTC5FNFpXB-5" vertex="1" connectable="0">
                    <mxGeometry x="0.8041" y="-1" relative="1" as="geometry">
                        <mxPoint as="offset"/>
                    </mxGeometry>
                </mxCell>
                <mxCell id="VfqzEj0OTGTTC5FNFpXB-7" value="" style="endArrow=diamondThin;endFill=0;endSize=24;html=1;rounded=0;exitX=0.132;exitY=1.045;exitDx=0;exitDy=0;exitPerimeter=0;entryX=0.328;entryY=0.001;entryDx=0;entryDy=0;entryPerimeter=0;" parent="1" source="6HsjpcbzOpORPiPXT8NS-40" target="EJnaUkzqWR3YQyQ7dOgF-33" edge="1">
                    <mxGeometry width="160" relative="1" as="geometry">
                        <mxPoint x="-850" y="310" as="sourcePoint"/>
                        <mxPoint x="-690" y="310" as="targetPoint"/>
                    </mxGeometry>
                </mxCell>
                <mxCell id="VfqzEj0OTGTTC5FNFpXB-8" value="1..n" style="edgeLabel;html=1;align=center;verticalAlign=middle;resizable=0;points=[];" parent="VfqzEj0OTGTTC5FNFpXB-7" vertex="1" connectable="0">
                    <mxGeometry x="0.6966" y="-1" relative="1" as="geometry">
                        <mxPoint y="25" as="offset"/>
                    </mxGeometry>
                </mxCell>
                <mxCell id="VfqzEj0OTGTTC5FNFpXB-13" value="CompetitionBrowser" style="swimlane;fontStyle=1;align=center;verticalAlign=top;childLayout=stackLayout;horizontal=1;startSize=26;horizontalStack=0;resizeParent=1;resizeParentMax=0;resizeLast=0;collapsible=1;marginBottom=0;" parent="1" vertex="1">
                    <mxGeometry x="460" y="740" width="230" height="60" as="geometry"/>
                </mxCell>
                <mxCell id="VfqzEj0OTGTTC5FNFpXB-15" value="" style="line;strokeWidth=1;fillColor=none;align=left;verticalAlign=middle;spacingTop=-1;spacingLeft=3;spacingRight=3;rotatable=0;labelPosition=right;points=[];portConstraint=eastwest;" parent="VfqzEj0OTGTTC5FNFpXB-13" vertex="1">
                    <mxGeometry y="26" width="230" height="8" as="geometry"/>
                </mxCell>
                <mxCell id="VfqzEj0OTGTTC5FNFpXB-16" value="+ browse(competition: Competition): void" style="text;strokeColor=none;fillColor=none;align=left;verticalAlign=top;spacingLeft=4;spacingRight=4;overflow=hidden;rotatable=0;points=[[0,0.5],[1,0.5]];portConstraint=eastwest;" parent="VfqzEj0OTGTTC5FNFpXB-13" vertex="1">
                    <mxGeometry y="34" width="230" height="26" as="geometry"/>
                </mxCell>
                <mxCell id="VfqzEj0OTGTTC5FNFpXB-17" value="" style="endArrow=none;html=1;rounded=0;exitX=0.469;exitY=0.011;exitDx=0;exitDy=0;exitPerimeter=0;entryX=0.432;entryY=1;entryDx=0;entryDy=0;entryPerimeter=0;" parent="1" source="VfqzEj0OTGTTC5FNFpXB-13" target="QGG74kZx5etVXOkYBk9g-9" edge="1">
                    <mxGeometry width="50" height="50" relative="1" as="geometry">
                        <mxPoint x="450" y="420" as="sourcePoint"/>
                        <mxPoint x="500" y="370" as="targetPoint"/>
                    </mxGeometry>
                </mxCell>
                <mxCell id="VfqzEj0OTGTTC5FNFpXB-28" value="Browses using" style="edgeLabel;html=1;align=center;verticalAlign=middle;resizable=0;points=[];" parent="VfqzEj0OTGTTC5FNFpXB-17" vertex="1" connectable="0">
                    <mxGeometry x="0.2516" y="1" relative="1" as="geometry">
                        <mxPoint y="4" as="offset"/>
                    </mxGeometry>
                </mxCell>
                <mxCell id="VfqzEj0OTGTTC5FNFpXB-23" value="Note that CompetitionInfo can be used to either edit or view" style="text;html=1;align=center;verticalAlign=middle;resizable=0;points=[];autosize=1;strokeColor=none;fillColor=none;" parent="1" vertex="1">
                    <mxGeometry x="720" y="370" width="330" height="20" as="geometry"/>
                </mxCell>
                <mxCell id="VfqzEj0OTGTTC5FNFpXB-34" value="" style="endArrow=none;html=1;rounded=0;exitX=0.5;exitY=0;exitDx=0;exitDy=0;entryX=-0.018;entryY=1;entryDx=0;entryDy=0;entryPerimeter=0;" parent="1" source="0c5YRF4WHMTncs785dVi-13" target="VfqzEj0OTGTTC5FNFpXB-39" edge="1">
                    <mxGeometry width="50" height="50" relative="1" as="geometry">
                        <mxPoint x="-30" y="380" as="sourcePoint"/>
                        <mxPoint x="55" y="288" as="targetPoint"/>
                        <Array as="points">
                            <mxPoint x="-270" y="262"/>
                        </Array>
                    </mxGeometry>
                </mxCell>
                <mxCell id="VfqzEj0OTGTTC5FNFpXB-36" value="Extracts infromation from" style="edgeLabel;html=1;align=center;verticalAlign=middle;resizable=0;points=[];" parent="VfqzEj0OTGTTC5FNFpXB-34" vertex="1" connectable="0">
                    <mxGeometry x="0.6025" relative="1" as="geometry">
                        <mxPoint x="-221" y="-2" as="offset"/>
                    </mxGeometry>
                </mxCell>
                <mxCell id="VfqzEj0OTGTTC5FNFpXB-38" value="StatusBar" style="swimlane;fontStyle=1;align=center;verticalAlign=top;childLayout=stackLayout;horizontal=1;startSize=26;horizontalStack=0;resizeParent=1;resizeParentMax=0;resizeLast=0;collapsible=1;marginBottom=0;" parent="1" vertex="1">
                    <mxGeometry x="70" y="190" width="170" height="124" as="geometry"/>
                </mxCell>
                <mxCell id="VfqzEj0OTGTTC5FNFpXB-39" value="+ totalCompetitions: int&#10;+ dueCompetitions:int&#10;" style="text;strokeColor=none;fillColor=none;align=left;verticalAlign=top;spacingLeft=4;spacingRight=4;overflow=hidden;rotatable=0;points=[[0,0.5],[1,0.5]];portConstraint=eastwest;" parent="VfqzEj0OTGTTC5FNFpXB-38" vertex="1">
                    <mxGeometry y="26" width="170" height="44" as="geometry"/>
                </mxCell>
                <mxCell id="VfqzEj0OTGTTC5FNFpXB-40" value="" style="line;strokeWidth=1;fillColor=none;align=left;verticalAlign=middle;spacingTop=-1;spacingLeft=3;spacingRight=3;rotatable=0;labelPosition=right;points=[];portConstraint=eastwest;" parent="VfqzEj0OTGTTC5FNFpXB-38" vertex="1">
                    <mxGeometry y="70" width="170" height="20" as="geometry"/>
                </mxCell>
                <mxCell id="VfqzEj0OTGTTC5FNFpXB-41" value="+ update(): void" style="text;strokeColor=none;fillColor=none;align=left;verticalAlign=top;spacingLeft=4;spacingRight=4;overflow=hidden;rotatable=0;points=[[0,0.5],[1,0.5]];portConstraint=eastwest;" parent="VfqzEj0OTGTTC5FNFpXB-38" vertex="1">
                    <mxGeometry y="90" width="170" height="34" as="geometry"/>
                </mxCell>
                <mxCell id="VfqzEj0OTGTTC5FNFpXB-44" value="" style="endArrow=diamondThin;endFill=1;endSize=24;html=1;rounded=0;entryX=1;entryY=0.5;entryDx=0;entryDy=0;" parent="1" target="QGG74kZx5etVXOkYBk9g-1" edge="1">
                    <mxGeometry width="160" relative="1" as="geometry">
                        <mxPoint x="460" y="360" as="sourcePoint"/>
                        <mxPoint x="560" y="260" as="targetPoint"/>
                        <Array as="points">
                            <mxPoint x="360" y="360"/>
                            <mxPoint x="360" y="240"/>
                            <mxPoint x="360" y="75"/>
                        </Array>
                    </mxGeometry>
                </mxCell>
                <mxCell id="Azq9uCov9JC3c6e-A47C-1" value="" style="endArrow=none;html=1;rounded=0;" parent="1" edge="1">
                    <mxGeometry width="50" height="50" relative="1" as="geometry">
                        <mxPoint x="-224" y="650" as="sourcePoint"/>
                        <mxPoint x="458" y="388" as="targetPoint"/>
                        <Array as="points">
                            <mxPoint x="-224" y="720"/>
                            <mxPoint x="360" y="720"/>
                            <mxPoint x="360" y="388"/>
                        </Array>
                    </mxGeometry>
                </mxCell>
                <mxCell id="Azq9uCov9JC3c6e-A47C-3" value="" style="endArrow=none;html=1;rounded=0;entryX=0;entryY=0.5;entryDx=0;entryDy=0;" parent="1" target="EJnaUkzqWR3YQyQ7dOgF-13" edge="1">
                    <mxGeometry width="50" height="50" relative="1" as="geometry">
                        <mxPoint x="-308" y="650" as="sourcePoint"/>
                        <mxPoint x="130" y="370" as="targetPoint"/>
                        <Array as="points">
                            <mxPoint x="-308" y="790"/>
                            <mxPoint x="390" y="790"/>
                            <mxPoint x="390" y="115"/>
                        </Array>
                    </mxGeometry>
                </mxCell>
                <mxCell id="Azq9uCov9JC3c6e-A47C-4" value="" style="endArrow=diamondThin;endFill=1;endSize=24;html=1;rounded=0;exitX=0.5;exitY=0;exitDx=0;exitDy=0;entryX=0.341;entryY=1.02;entryDx=0;entryDy=0;entryPerimeter=0;" parent="1" source="VfqzEj0OTGTTC5FNFpXB-38" target="QGG74kZx5etVXOkYBk9g-1" edge="1">
                    <mxGeometry width="160" relative="1" as="geometry">
                        <mxPoint x="170" y="400" as="sourcePoint"/>
                        <mxPoint x="330" y="400" as="targetPoint"/>
                    </mxGeometry>
                </mxCell>
                <mxCell id="Azq9uCov9JC3c6e-A47C-7" value="" style="endArrow=diamondThin;endFill=1;endSize=24;html=1;rounded=0;entryX=0.5;entryY=0;entryDx=0;entryDy=0;exitX=0;exitY=0.5;exitDx=0;exitDy=0;" parent="1" source="QGG74kZx5etVXOkYBk9g-5" target="EJnaUkzqWR3YQyQ7dOgF-1" edge="1">
                    <mxGeometry width="160" relative="1" as="geometry">
                        <mxPoint x="410" y="140" as="sourcePoint"/>
                        <mxPoint x="570" y="140" as="targetPoint"/>
                        <Array as="points">
                            <mxPoint x="360" y="63"/>
                            <mxPoint x="360" y="-80"/>
                            <mxPoint x="185" y="-80"/>
                        </Array>
                    </mxGeometry>
                </mxCell>
                <mxCell id="3" style="edgeStyle=none;html=1;entryX=0.538;entryY=0.001;entryDx=0;entryDy=0;entryPerimeter=0;endArrow=none;endFill=0;" edge="1" parent="1" source="EJnaUkzqWR3YQyQ7dOgF-16" target="QGG74kZx5etVXOkYBk9g-6">
                    <mxGeometry relative="1" as="geometry"/>
                </mxCell>
            </root>
        </mxGraphModel>
    </diagram>
</mxfile>